<?xml version="1.0" standalone="no"?>
<!DOCTYPE svg PUBLIC "-//W3C//DTD SVG 20010904//EN"
 "http://www.w3.org/TR/2001/REC-SVG-20010904/DTD/svg10.dtd">
<svg version="1.0" xmlns="http://www.w3.org/2000/svg"
 width="614.000000pt" height="235.000000pt" viewBox="0 0 614.000000 235.000000"
 preserveAspectRatio="xMidYMid meet">
<metadata>
Created by potrace 1.16, written by Peter Selinger 2001-2019
</metadata>
<g transform="translate(0.000000,235.000000) scale(0.100000,-0.100000)"
fill="#000000" stroke="none">
<path d="M430 1855 l0 -245 270 0 270 0 0 245 0 245 -270 0 -270 0 0 -245z
m490 205 c0 -6 -80 -10 -220 -10 l-220 0 0 -185 c0 -158 -2 -185 -15 -185 -13
0 -15 28 -15 195 l0 195 235 0 c150 0 235 -4 235 -10z"/>
<path d="M5022 2087 c-24 -14 -52 -59 -52 -83 0 -8 -23 -25 -51 -40 l-51 -25
21 -23 c18 -19 21 -35 21 -103 0 -73 2 -82 20 -88 11 -4 18 -10 15 -15 -3 -5
17 -32 45 -60 49 -47 54 -50 104 -50 53 0 96 20 96 45 0 7 10 15 23 17 12 2
23 9 23 16 1 6 2 17 3 22 0 6 7 10 14 10 25 0 37 50 37 157 0 83 -3 104 -12
95 -20 -20 -25 -14 -33 35 -4 31 -16 55 -35 75 -26 25 -35 28 -97 28 -37 -1
-78 -6 -91 -13z m180 -29 c22 -24 28 -41 28 -75 0 -33 -4 -43 -16 -43 -12 0
-14 -4 -7 -12 6 -7 9 -33 7 -58 -1 -25 -2 -53 -3 -62 -1 -10 -6 -18 -12 -18
-15 0 -76 -65 -84 -89 -3 -11 -1 -22 5 -26 19 -12 0 -25 -36 -25 -24 0 -34 5
-34 15 0 8 -5 15 -11 15 -7 0 -26 16 -45 35 -18 19 -37 35 -43 35 -7 0 -11 30
-11 80 0 64 3 80 15 80 22 0 18 18 -7 31 l-21 12 24 13 c13 7 32 13 41 14 20
0 25 7 32 46 3 16 10 30 16 32 5 2 10 10 10 18 0 11 15 14 62 14 56 0 64 -3
90 -32z"/>
<path d="M3198 1494 c-3 -3 -702 -5 -1552 -5 -1384 0 -1546 -1 -1546 -15 0
-13 13 -15 78 -13 80 2 5694 2 5770 -1 31 -1 42 3 42 14 0 13 -173 15 -1385
15 -763 0 -1390 3 -1394 5 -5 3 -11 3 -13 0z"/>
<path d="M3297 1363 c-4 -3 -7 -127 -7 -275 l0 -268 1013 2 1012 3 -1007 2
-1008 3 0 265 0 265 1008 3 1007 2 -1006 3 c-553 1 -1009 -1 -1012 -5z"/>
<path d="M3320 1095 l0 -245 985 0 985 0 0 245 0 245 -985 0 -985 0 0 -245z"/>
<path d="M623 1232 c-51 -55 -53 -59 -53 -113 0 -62 7 -73 79 -133 54 -45 78
-41 144 22 47 46 47 47 47 113 0 65 0 66 -49 117 -69 72 -97 71 -168 -6z m131
13 c9 -14 12 -25 6 -25 -5 0 -10 -7 -10 -15 0 -18 17 -20 23 -2 9 27 21 -6 21
-62 -1 -55 -3 -61 -37 -91 -38 -33 -46 -55 -24 -63 6 -3 -2 -6 -19 -6 -22 -1
-41 8 -62 29 -18 17 -36 30 -42 30 -6 0 -10 31 -10 75 0 43 4 75 10 75 6 0 10
5 10 11 0 6 6 17 14 25 8 8 19 14 25 14 6 0 11 7 11 15 0 10 10 15 34 15 25 0
38 -6 50 -25z"/>
<path d="M4063 483 l2 -238 608 -3 607 -2 0 240 0 240 -609 0 -610 0 2 -237z
m1027 2 l0 -225 -505 0 -505 0 0 225 0 225 505 0 505 0 0 -225z"/>
</g>
</svg>
